<?xml version="1.0" encoding="UTF-8" standalone="no"?>
<!-- Created with Inkscape (http://www.inkscape.org/) -->

<svg
   xmlns:dc="http://purl.org/dc/elements/1.1/"
   xmlns:cc="http://creativecommons.org/ns#"
   xmlns:rdf="http://www.w3.org/1999/02/22-rdf-syntax-ns#"
   xmlns:svg="http://www.w3.org/2000/svg"
   xmlns="http://www.w3.org/2000/svg"
   xmlns:sodipodi="http://sodipodi.sourceforge.net/DTD/sodipodi-0.dtd"
   xmlns:inkscape="http://www.inkscape.org/namespaces/inkscape"
   width="163.02591mm"
   height="16.23053mm"
   viewBox="0 0 163.02591 16.23053"
   version="1.1"
   id="svg6353"
   inkscape:version="0.92.1 r"
   sodipodi:docname="logo_marer_horizontal_wide.svg"
   inkscape:export-filename="/home/numega/Загрузки/marer_vc/full_logo.svg.png"
   inkscape:export-xdpi="300.20001"
   inkscape:export-ydpi="300.20001">
  <defs
     id="defs6347">
    <clipPath
       clipPathUnits="userSpaceOnUse"
       id="clipPath3446">
      <path
         d="M 0,1232 H 1397.011 V 0 H 0 Z"
         id="path3444"
         inkscape:connector-curvature="0" />
    </clipPath>
  </defs>
  <sodipodi:namedview
     id="base"
     pagecolor="#ffffff"
     bordercolor="#666666"
     borderopacity="1.0"
     inkscape:pageopacity="0.0"
     inkscape:pageshadow="2"
     inkscape:zoom="0.98994949"
     inkscape:cx="265.58037"
     inkscape:cy="103.73813"
     inkscape:document-units="mm"
     inkscape:current-layer="layer1"
     showgrid="false"
     fit-margin-top="0"
     fit-margin-left="0"
     fit-margin-right="0"
     fit-margin-bottom="0"
     inkscape:window-width="1364"
     inkscape:window-height="743"
     inkscape:window-x="0"
     inkscape:window-y="23"
     inkscape:window-maximized="1" />
  <metadata
     id="metadata6350">
    <rdf:RDF>
      <cc:Work
         rdf:about="">
        <dc:format>image/svg+xml</dc:format>
        <dc:type
           rdf:resource="http://purl.org/dc/dcmitype/StillImage" />
        <dc:title />
      </cc:Work>
    </rdf:RDF>
  </metadata>
  <g
     inkscape:label="Layer 1"
     inkscape:groupmode="layer"
     id="layer1"
     transform="translate(-110.71344,-108.21211)">
    <g
       aria-label="МАРЭР"
       style="font-style:normal;font-variant:normal;font-weight:normal;font-stretch:normal;font-size:13.93375492px;font-family:'Elegant Line 7';-inkscape-font-specification:'Elegant Line 7, Normal';font-variant-ligatures:normal;font-variant-caps:normal;font-variant-numeric:normal;font-feature-settings:normal;text-align:start;writing-mode:lr-tb;text-anchor:start;opacity:1;fill:#0c2957;fill-opacity:1;fill-rule:nonzero;stroke:none;stroke-width:0.48047429"
       id="text1742">
      <path
         d="m 132.9966,121.43007 h -0.68036 v -10.20539 h 0.68036 l 3.40179,4.57882 3.4018,-4.57882 h 0.68036 v 10.20539 h -0.68036 v -9.06919 l -3.4018,4.52439 -3.40179,-4.5448 z"
         style="stroke-width:0.48047429"
         id="path61" />
      <path
         d="m 142.52163,121.43007 h -0.68036 v -6.12323 q 0,-4.08216 4.08215,-4.08216 4.08216,0 4.08216,4.08216 v 6.12323 h -0.68036 v -4.08216 h -6.80359 z m 6.80359,-4.76251 v -1.36072 q 0,-3.4018 -3.4018,-3.4018 -3.40179,0 -3.40179,3.4018 v 1.36072 z"
         style="stroke-width:0.48047429"
         id="path63" />
      <path
         d="m 151.36629,121.43007 v -10.20539 h 4.08216 q 4.08215,0 4.08215,4.08216 0,4.08215 -4.08215,4.08215 h -3.4018 v 2.04108 z m 4.08216,-2.72144 q 3.4018,0 3.4018,-3.40179 0,-3.4018 -3.4018,-3.4018 h -3.4018 v 6.80359 z"
         style="stroke-width:0.48047429"
         id="path65" />
      <path
         d="m 164.97348,115.9872 h 3.40179 v -0.68036 q 0,-3.4018 -3.40179,-3.4018 -2.72144,0 -3.19769,2.04108 h -0.68036 q 0.47625,-2.72144 3.87805,-2.72144 4.08215,0 4.08215,4.08216 v 2.04107 q 0,4.08216 -4.08215,4.08216 -3.4018,0 -3.87805,-2.72144 h 0.68036 q 0.47625,2.04108 3.19769,2.04108 3.40179,0 3.40179,-3.4018 v -0.68035 h -3.40179 z"
         style="stroke-width:0.48047429"
         id="path67" />
      <path
         d="m 170.41635,121.43007 v -10.20539 h 4.08216 q 4.08215,0 4.08215,4.08216 0,4.08215 -4.08215,4.08215 h -3.4018 v 2.04108 z m 4.08216,-2.72144 q 3.40179,0 3.40179,-3.40179 0,-3.4018 -3.40179,-3.4018 h -3.4018 v 6.80359 z"
         style="stroke-width:0.48047429"
         id="path69" />
    </g>
    <g
       id="g5464"
       transform="matrix(0.35277777,0,0,-0.35277777,-255.4043,499.95976)">
      <path
         id="path2604-7"
         d="m 1067.3532,1075.0595 -2.6758,-2.6836 -2.6836,2.6524 2.6758,2.6796 2.6836,-2.6484"
         style="fill:#17234a;fill-opacity:1;fill-rule:nonzero;stroke:none;stroke-width:0.99999994"
         inkscape:connector-curvature="0" />
      <path
         id="path2606"
         d="m 1071.4196,1078.958 -2.6797,-2.6719 -6.7578,6.7617 2.6758,2.6797 6.7617,-6.7695"
         style="fill:#17234a;fill-opacity:1;fill-rule:nonzero;stroke:none;stroke-width:0.99999994"
         inkscape:connector-curvature="0" />
      <path
         id="path2608-9"
         d="m 1075.5212,1083.0087 -2.6797,-2.6797 -10.8321,10.7969 2.6719,2.6836 10.8399,-10.8008"
         style="fill:#17234a;fill-opacity:1;fill-rule:nonzero;stroke:none;stroke-width:0.99999994"
         inkscape:connector-curvature="0" />
      <path
         id="path2610"
         d="m 1079.6227,1087.1064 -2.6797,-2.6406 -14.9609,14.9609 2.6797,2.6719 14.9609,-14.9922"
         style="fill:#17234a;fill-opacity:1;fill-rule:nonzero;stroke:none;stroke-width:0.99999994"
         inkscape:connector-curvature="0" />
      <path
         id="path2612-6"
         d="m 1083.7282,1091.3369 -2.6758,-2.668 -19.1289,19.1289 2.6758,2.668 19.1289,-19.1289"
         style="fill:#17234a;fill-opacity:1;fill-rule:nonzero;stroke:none;stroke-width:0.99999994"
         inkscape:connector-curvature="0" />
      <path
         id="path2614"
         d="m 1063.4118,1078.9658 -2.6797,-2.6797 -15.2109,15.25 2.6758,2.6797 15.2148,-15.25"
         style="fill:#78cce3;fill-opacity:1;fill-rule:nonzero;stroke:none;stroke-width:0.99999994"
         inkscape:connector-curvature="0" />
      <path
         id="path2616-0"
         d="m 1063.4274,1086.958 -2.6797,-2.6798 -11.2461,11.25 2.6797,2.668 11.2461,-11.2382"
         style="fill:#78cce3;fill-opacity:1;fill-rule:nonzero;stroke:none;stroke-width:0.99999994"
         inkscape:connector-curvature="0" />
      <path
         id="path2618"
         d="m 1063.3805,1095.1181 -2.6796,-2.6797 -7.125,7.1602 2.6796,2.6679 7.125,-7.1484"
         style="fill:#78cce3;fill-opacity:1;fill-rule:nonzero;stroke:none;stroke-width:0.99999994"
         inkscape:connector-curvature="0" />
      <path
         id="path2620-4"
         d="m 1063.4313,1103.3486 -2.6758,-2.6797 -3.0664,3.0391 2.6758,2.6679 3.0664,-3.0273"
         style="fill:#78cce3;fill-opacity:1;fill-rule:nonzero;stroke:none;stroke-width:0.99999994"
         inkscape:connector-curvature="0" />
      <path
         id="path2622"
         d="m 1091.5759,1091.4072 -26.9883,-26.9492 -26.7735,26.9804 5.2383,0.028 21.5352,-21.8282 21.7031,21.8008 5.2852,-0.031"
         style="fill:#78cce3;fill-opacity:1;fill-rule:nonzero;stroke:none;stroke-width:0.99999994"
         inkscape:connector-curvature="0" />
    </g>
    <g
       id="g4508"
       transform="translate(0,8.3312443)">
      <g
         aria-label="РЕГИОНАЛЬНОГО ЭКОНОМИЧЕСКОГО РАЗВИТИЯ"
         transform="scale(0.96953338,1.031424)"
         style="font-style:normal;font-variant:normal;font-weight:normal;font-stretch:normal;font-size:4.10285568px;font-family:DINCyr-Regular;-inkscape-font-specification:'DINCyr-Regular, Normal';font-variant-ligatures:normal;font-variant-caps:normal;font-variant-numeric:normal;font-feature-settings:normal;text-align:start;writing-mode:lr-tb;text-anchor:start;fill:#28aae1;fill-opacity:1;fill-rule:nonzero;stroke:none;stroke-width:0.91444945"
         id="text3320-0">
        <path
           d="m 190.55591,107.4458 q 0,0.19283 -0.0656,0.35285 -0.0657,0.16001 -0.18463,0.27489 -0.11488,0.11077 -0.2831,0.17232 -0.16822,0.0615 -0.36926,0.0615 h -0.77544 v 1.20214 h -0.31181 v -2.92124 h 1.08725 q 0.20104,0 0.36926,0.0615 0.16822,0.0615 0.2831,0.17642 0.11898,0.11078 0.18463,0.27079 0.0656,0.15591 0.0656,0.34874 z m -0.31182,0 q 0,-0.27489 -0.16411,-0.4267 -0.16001,-0.1518 -0.45542,-0.1518 h -0.74672 v 1.16111 h 0.74672 q 0.29541,0 0.45542,-0.15181 0.16411,-0.15591 0.16411,-0.4308 z"
           style="stroke-width:0.91444945"
           id="path72" />
        <path
           d="m 191.15435,109.50954 v -2.92124 h 1.81346 v 0.279 h -1.50164 v 1.02981 h 1.28009 v 0.279 h -1.28009 v 1.05443 h 1.50164 v 0.279 z"
           style="stroke-width:0.91444945"
           id="path74" />
        <path
           d="m 193.955,106.8673 v 2.64224 h -0.31182 v -2.92124 h 1.75602 v 0.279 z"
           style="stroke-width:0.91444945"
           id="path76" />
        <path
           d="m 197.727,109.50954 v -2.38376 l -1.48524,2.38376 h -0.2954 v -2.92124 h 0.31182 v 2.37966 l 1.48523,-2.37966 h 0.29541 v 2.92124 z"
           style="stroke-width:0.91444945"
           id="path78" />
        <path
           d="m 200.81972,108.04892 q 0,0.21745 -0.008,0.39387 -0.004,0.17232 -0.0328,0.31592 -0.0246,0.1395 -0.0821,0.25848 -0.0533,0.11488 -0.1518,0.21335 -0.14771,0.14771 -0.33644,0.22566 -0.18873,0.078 -0.41028,0.078 -0.44311,0 -0.74672,-0.30361 -0.0985,-0.0985 -0.15591,-0.21335 -0.0533,-0.11898 -0.0821,-0.25848 -0.0246,-0.1436 -0.0328,-0.31592 -0.004,-0.17642 -0.004,-0.39387 v -0.22566 q 0,-0.13129 0.008,-0.25848 0.008,-0.13129 0.0328,-0.25437 0.0287,-0.12309 0.0821,-0.23387 0.0574,-0.11488 0.15181,-0.20924 0.1477,-0.14771 0.33643,-0.22566 0.19284,-0.078 0.41029,-0.078 0.21745,0 0.40618,0.078 0.19283,0.078 0.34054,0.22566 0.0944,0.0944 0.1477,0.20924 0.0574,0.11488 0.0821,0.24207 0.0287,0.12719 0.0369,0.26258 0.008,0.1313 0.008,0.26669 z m -0.31182,-0.15591 q 0,-0.12719 -0.004,-0.24617 -0.004,-0.12309 -0.0246,-0.22976 -0.0205,-0.11078 -0.0615,-0.20104 -0.041,-0.0903 -0.11488,-0.16411 -0.10257,-0.10258 -0.23386,-0.15591 -0.12719,-0.0533 -0.27079,-0.0533 -0.1436,0 -0.27489,0.0533 -0.12719,0.0533 -0.22976,0.15591 -0.078,0.078 -0.11899,0.17232 -0.041,0.0944 -0.0615,0.20924 -0.0164,0.11488 -0.0205,0.24617 -0.004,0.13129 -0.004,0.2831 v 0.2913 q 0,0.11899 0.004,0.22976 0.008,0.11078 0.0287,0.21335 0.0205,0.10257 0.0615,0.19284 0.041,0.0862 0.11078,0.1559 0.20924,0.20925 0.50465,0.20925 0.2954,0 0.50465,-0.20925 0.0738,-0.0739 0.11488,-0.16821 0.0451,-0.0985 0.0615,-0.20515 0.0205,-0.11077 0.0246,-0.22976 0.004,-0.12308 0.004,-0.25027 z"
           style="stroke-width:0.91444945"
           id="path80" />
        <path
           d="m 203.25431,109.50954 v -1.33343 h -1.38676 v 1.33343 h -0.31182 v -2.92124 h 0.31182 v 1.30881 h 1.38676 v -1.30881 h 0.31182 v 2.92124 z"
           style="stroke-width:0.91444945"
           id="path82" />
        <path
           d="m 206.11118,109.50954 -0.23386,-0.66056 h -1.27599 l -0.23386,0.66056 h -0.33233 l 1.07495,-2.92124 h 0.26258 l 1.07085,2.92124 z m -0.8657,-2.47403 -0.54978,1.54268 h 1.09136 z"
           style="stroke-width:0.91444945"
           id="path84" />
        <path
           d="m 208.53732,109.50954 v -2.64224 h -0.99289 v 1.00109 q 0,0.46363 -0.0574,0.77955 -0.0533,0.31181 -0.16002,0.50465 -0.10667,0.18873 -0.26668,0.27489 -0.16001,0.0821 -0.36926,0.0821 h -0.1477 v -0.279 h 0.078 q 0.1354,0 0.24617,-0.0574 0.11488,-0.0574 0.19694,-0.21335 0.0862,-0.16001 0.13129,-0.4431 0.0451,-0.2872 0.0451,-0.74262 v -1.18573 h 1.60832 v 2.92124 z"
           style="stroke-width:0.91444945"
           id="path86" />
        <path
           d="m 211.69543,108.65204 q 0,0.19283 -0.0656,0.35285 -0.0656,0.1559 -0.18463,0.27078 -0.11488,0.11078 -0.28309,0.17232 -0.16822,0.0615 -0.36926,0.0615 h -1.09546 v -2.92124 h 0.31181 v 1.20214 h 0.78365 q 0.20514,0 0.36926,0.0615 0.16821,0.0615 0.2872,0.17643 0.11898,0.11077 0.18052,0.27078 0.0656,0.16002 0.0656,0.35285 z m -0.31592,0 q 0,-0.27899 -0.16001,-0.4308 -0.16002,-0.15181 -0.45542,-0.15181 h -0.75493 v 1.16111 h 0.75493 q 0.2954,0 0.45542,-0.1518 0.16001,-0.15181 0.16001,-0.4267 z"
           style="stroke-width:0.91444945"
           id="path88" />
        <path
           d="m 213.98424,109.50954 v -1.33343 h -1.38676 v 1.33343 h -0.31182 v -2.92124 h 0.31182 v 1.30881 h 1.38676 v -1.30881 h 0.31182 v 2.92124 z"
           style="stroke-width:0.91444945"
           id="path90" />
        <path
           d="m 217.07087,108.04892 q 0,0.21745 -0.008,0.39387 -0.004,0.17232 -0.0328,0.31592 -0.0246,0.1395 -0.0821,0.25848 -0.0533,0.11488 -0.15181,0.21335 -0.1477,0.14771 -0.33643,0.22566 -0.18873,0.078 -0.41029,0.078 -0.44311,0 -0.74672,-0.30361 -0.0985,-0.0985 -0.15591,-0.21335 -0.0533,-0.11898 -0.082,-0.25848 -0.0246,-0.1436 -0.0328,-0.31592 -0.004,-0.17642 -0.004,-0.39387 v -0.22566 q 0,-0.13129 0.008,-0.25848 0.008,-0.13129 0.0328,-0.25437 0.0287,-0.12309 0.0821,-0.23387 0.0574,-0.11488 0.1518,-0.20924 0.1477,-0.14771 0.33644,-0.22566 0.19283,-0.078 0.41028,-0.078 0.21745,0 0.40618,0.078 0.19284,0.078 0.34054,0.22566 0.0944,0.0944 0.1477,0.20924 0.0574,0.11488 0.0821,0.24207 0.0287,0.12719 0.0369,0.26258 0.008,0.1313 0.008,0.26669 z m -0.31181,-0.15591 q 0,-0.12719 -0.004,-0.24617 -0.004,-0.12309 -0.0246,-0.22976 -0.0205,-0.11078 -0.0616,-0.20104 -0.041,-0.0903 -0.11488,-0.16411 -0.10257,-0.10258 -0.23386,-0.15591 -0.12719,-0.0533 -0.27079,-0.0533 -0.1436,0 -0.27489,0.0533 -0.12719,0.0533 -0.22976,0.15591 -0.078,0.078 -0.11898,0.17232 -0.041,0.0944 -0.0616,0.20924 -0.0164,0.11488 -0.0205,0.24617 -0.004,0.13129 -0.004,0.2831 v 0.2913 q 0,0.11899 0.004,0.22976 0.008,0.11078 0.0287,0.21335 0.0205,0.10257 0.0615,0.19284 0.041,0.0862 0.11078,0.1559 0.20925,0.20925 0.50465,0.20925 0.29541,0 0.50465,-0.20925 0.0738,-0.0739 0.11488,-0.16821 0.0451,-0.0985 0.0616,-0.20515 0.0205,-0.11077 0.0246,-0.22976 0.004,-0.12308 0.004,-0.25027 z"
           style="stroke-width:0.91444945"
           id="path92" />
        <path
           d="m 218.14742,106.8673 v 2.64224 h -0.31181 v -2.92124 h 1.75602 v 0.279 z"
           style="stroke-width:0.91444945"
           id="path94" />
        <path
           d="m 221.95503,108.04892 q 0,0.21745 -0.008,0.39387 -0.004,0.17232 -0.0328,0.31592 -0.0246,0.1395 -0.0821,0.25848 -0.0533,0.11488 -0.15181,0.21335 -0.1477,0.14771 -0.33643,0.22566 -0.18873,0.078 -0.41029,0.078 -0.44311,0 -0.74672,-0.30361 -0.0985,-0.0985 -0.15591,-0.21335 -0.0533,-0.11898 -0.0821,-0.25848 -0.0246,-0.1436 -0.0328,-0.31592 -0.004,-0.17642 -0.004,-0.39387 v -0.22566 q 0,-0.13129 0.008,-0.25848 0.008,-0.13129 0.0328,-0.25437 0.0287,-0.12309 0.0821,-0.23387 0.0574,-0.11488 0.1518,-0.20924 0.14771,-0.14771 0.33644,-0.22566 0.19283,-0.078 0.41028,-0.078 0.21745,0 0.40619,0.078 0.19283,0.078 0.34053,0.22566 0.0944,0.0944 0.14771,0.20924 0.0574,0.11488 0.082,0.24207 0.0287,0.12719 0.0369,0.26258 0.008,0.1313 0.008,0.26669 z m -0.31181,-0.15591 q 0,-0.12719 -0.004,-0.24617 -0.004,-0.12309 -0.0246,-0.22976 -0.0205,-0.11078 -0.0615,-0.20104 -0.041,-0.0903 -0.11488,-0.16411 -0.10257,-0.10258 -0.23386,-0.15591 -0.12719,-0.0533 -0.27079,-0.0533 -0.1436,0 -0.27489,0.0533 -0.12719,0.0533 -0.22976,0.15591 -0.0779,0.078 -0.11898,0.17232 -0.041,0.0944 -0.0615,0.20924 -0.0164,0.11488 -0.0205,0.24617 -0.004,0.13129 -0.004,0.2831 v 0.2913 q 0,0.11899 0.004,0.22976 0.008,0.11078 0.0287,0.21335 0.0205,0.10257 0.0615,0.19284 0.041,0.0862 0.11078,0.1559 0.20925,0.20925 0.50465,0.20925 0.29541,0 0.50465,-0.20925 0.0739,-0.0739 0.11488,-0.16821 0.0451,-0.0985 0.0615,-0.20515 0.0205,-0.11077 0.0246,-0.22976 0.004,-0.12308 0.004,-0.25027 z"
           style="stroke-width:0.91444945"
           id="path96" />
        <path
           d="m 223.86456,108.66435 q 0.0615,0.27079 0.24617,0.4349 0.18463,0.16001 0.45952,0.16001 0.29951,0 0.50876,-0.20924 0.0656,-0.0657 0.10257,-0.1354 0.041,-0.0738 0.0615,-0.17232 0.0246,-0.10257 0.0328,-0.23796 0.008,-0.1354 0.008,-0.32823 h -1.10777 v -0.27489 h 1.10367 q 0,-0.18463 -0.008,-0.31592 -0.008,-0.13129 -0.0287,-0.22976 -0.0205,-0.0985 -0.0615,-0.16822 -0.041,-0.0738 -0.10257,-0.1395 -0.20925,-0.20924 -0.50876,-0.20924 -0.27489,0 -0.45952,0.16411 -0.18052,0.16001 -0.23796,0.4308 h -0.31592 q 0.0369,-0.20514 0.12308,-0.36515 0.0903,-0.16412 0.22156,-0.27489 0.13539,-0.11078 0.30361,-0.16822 0.16822,-0.0615 0.36515,-0.0615 0.21745,0 0.40618,0.078 0.19284,0.078 0.34054,0.22566 0.10257,0.10257 0.15591,0.21335 0.0574,0.11077 0.0821,0.25027 0.0287,0.13539 0.0328,0.31182 0.004,0.17232 0.004,0.40618 0,0.23386 -0.004,0.41029 -0.004,0.17232 -0.0328,0.31181 -0.0246,0.1354 -0.0821,0.24617 -0.0533,0.11078 -0.15591,0.21335 -0.1477,0.14771 -0.34054,0.22566 -0.18873,0.078 -0.40618,0.078 -0.19693,0 -0.36515,-0.0574 -0.16822,-0.0615 -0.29951,-0.17232 -0.13129,-0.11077 -0.22155,-0.27078 -0.0903,-0.16412 -0.12719,-0.36926 z"
           style="stroke-width:0.91444945"
           id="path98" />
        <path
           d="m 226.34153,109.50954 v -2.92124 h 0.31182 v 1.39087 l 1.25137,-1.39087 h 0.39387 l -1.28009,1.38677 1.39087,1.53447 h -0.41439 l -1.34163,-1.52216 v 1.52216 z"
           style="stroke-width:0.91444945"
           id="path100" />
        <path
           d="m 230.67761,108.04892 q 0,0.21745 -0.008,0.39387 -0.004,0.17232 -0.0328,0.31592 -0.0246,0.1395 -0.0821,0.25848 -0.0533,0.11488 -0.1518,0.21335 -0.1477,0.14771 -0.33644,0.22566 -0.18873,0.078 -0.41028,0.078 -0.44311,0 -0.74672,-0.30361 -0.0985,-0.0985 -0.15591,-0.21335 -0.0533,-0.11898 -0.0821,-0.25848 -0.0246,-0.1436 -0.0328,-0.31592 -0.004,-0.17642 -0.004,-0.39387 v -0.22566 q 0,-0.13129 0.008,-0.25848 0.008,-0.13129 0.0328,-0.25437 0.0287,-0.12309 0.0821,-0.23387 0.0574,-0.11488 0.15181,-0.20924 0.1477,-0.14771 0.33643,-0.22566 0.19284,-0.078 0.41029,-0.078 0.21745,0 0.40618,0.078 0.19284,0.078 0.34054,0.22566 0.0944,0.0944 0.1477,0.20924 0.0574,0.11488 0.0821,0.24207 0.0287,0.12719 0.0369,0.26258 0.008,0.1313 0.008,0.26669 z m -0.31182,-0.15591 q 0,-0.12719 -0.004,-0.24617 -0.004,-0.12309 -0.0246,-0.22976 -0.0205,-0.11078 -0.0615,-0.20104 -0.041,-0.0903 -0.11488,-0.16411 -0.10257,-0.10258 -0.23386,-0.15591 -0.12719,-0.0533 -0.27079,-0.0533 -0.1436,0 -0.27489,0.0533 -0.12719,0.0533 -0.22976,0.15591 -0.078,0.078 -0.11899,0.17232 -0.041,0.0944 -0.0615,0.20924 -0.0164,0.11488 -0.0205,0.24617 -0.004,0.13129 -0.004,0.2831 v 0.2913 q 0,0.11899 0.004,0.22976 0.008,0.11078 0.0287,0.21335 0.0205,0.10257 0.0615,0.19284 0.041,0.0862 0.11078,0.1559 0.20924,0.20925 0.50465,0.20925 0.2954,0 0.50465,-0.20925 0.0738,-0.0739 0.11488,-0.16821 0.0451,-0.0985 0.0615,-0.20515 0.0205,-0.11077 0.0246,-0.22976 0.004,-0.12308 0.004,-0.25027 z"
           style="stroke-width:0.91444945"
           id="path102" />
        <path
           d="m 233.1122,109.50954 v -1.33343 h -1.38676 v 1.33343 h -0.31182 v -2.92124 h 0.31182 v 1.30881 h 1.38676 v -1.30881 h 0.31182 v 2.92124 z"
           style="stroke-width:0.91444945"
           id="path104" />
        <path
           d="m 236.19883,108.04892 q 0,0.21745 -0.008,0.39387 -0.004,0.17232 -0.0328,0.31592 -0.0246,0.1395 -0.0821,0.25848 -0.0533,0.11488 -0.15181,0.21335 -0.1477,0.14771 -0.33643,0.22566 -0.18873,0.078 -0.41029,0.078 -0.4431,0 -0.74672,-0.30361 -0.0985,-0.0985 -0.1559,-0.21335 -0.0533,-0.11898 -0.0821,-0.25848 -0.0246,-0.1436 -0.0328,-0.31592 -0.004,-0.17642 -0.004,-0.39387 v -0.22566 q 0,-0.13129 0.008,-0.25848 0.008,-0.13129 0.0328,-0.25437 0.0287,-0.12309 0.0821,-0.23387 0.0574,-0.11488 0.1518,-0.20924 0.14771,-0.14771 0.33644,-0.22566 0.19283,-0.078 0.41028,-0.078 0.21746,0 0.40619,0.078 0.19283,0.078 0.34053,0.22566 0.0944,0.0944 0.14771,0.20924 0.0574,0.11488 0.082,0.24207 0.0287,0.12719 0.0369,0.26258 0.008,0.1313 0.008,0.26669 z m -0.31181,-0.15591 q 0,-0.12719 -0.004,-0.24617 -0.004,-0.12309 -0.0246,-0.22976 -0.0205,-0.11078 -0.0615,-0.20104 -0.041,-0.0903 -0.11488,-0.16411 -0.10258,-0.10258 -0.23387,-0.15591 -0.12719,-0.0533 -0.27079,-0.0533 -0.1436,0 -0.27489,0.0533 -0.12719,0.0533 -0.22976,0.15591 -0.078,0.078 -0.11898,0.17232 -0.041,0.0944 -0.0615,0.20924 -0.0164,0.11488 -0.0205,0.24617 -0.004,0.13129 -0.004,0.2831 v 0.2913 q 0,0.11899 0.004,0.22976 0.008,0.11078 0.0287,0.21335 0.0205,0.10257 0.0616,0.19284 0.041,0.0862 0.11077,0.1559 0.20925,0.20925 0.50465,0.20925 0.29541,0 0.50466,-0.20925 0.0738,-0.0739 0.11488,-0.16821 0.0451,-0.0985 0.0615,-0.20515 0.0205,-0.11077 0.0246,-0.22976 0.004,-0.12308 0.004,-0.25027 z"
           style="stroke-width:0.91444945"
           id="path106" />
        <path
           d="m 239.12578,109.50954 v -2.21965 l -0.80006,1.76013 h -0.26669 l -0.81236,-1.76013 v 2.21965 h -0.31182 v -2.92124 h 0.31182 l 0.95186,2.07195 0.92725,-2.07195 h 0.31181 v 2.92124 z"
           style="stroke-width:0.91444945"
           id="path108" />
        <path
           d="m 242.06508,109.50954 v -2.38376 l -1.48523,2.38376 h -0.29541 v -2.92124 h 0.31182 v 2.37966 l 1.48524,-2.37966 h 0.2954 v 2.92124 z"
           style="stroke-width:0.91444945"
           id="path110" />
        <path
           d="m 244.7147,109.50954 v -1.19393 q -0.0697,0.0123 -0.16822,0.0328 -0.0985,0.0205 -0.21335,0.0369 -0.11488,0.0164 -0.22976,0.0287 -0.11488,0.0123 -0.21335,0.0123 -0.1477,0 -0.2913,-0.0369 -0.1395,-0.0369 -0.24617,-0.12309 -0.10668,-0.0862 -0.17232,-0.22566 -0.0657,-0.13949 -0.0657,-0.34464 v -1.10777 h 0.31182 v 1.05033 q 0,0.16002 0.0451,0.25848 0.0492,0.0985 0.12309,0.15591 0.078,0.0533 0.17232,0.0738 0.0985,0.0205 0.20104,0.0205 0.0779,0 0.17642,-0.008 0.10257,-0.0123 0.20514,-0.0287 0.10257,-0.0164 0.19694,-0.0328 0.0985,-0.0205 0.16822,-0.0328 v -1.45652 h 0.31181 v 2.92124 z"
           style="stroke-width:0.91444945"
           id="path112" />
        <path
           d="m 245.86978,109.50954 v -2.92124 h 1.81346 v 0.279 h -1.50164 v 1.02981 h 1.28009 v 0.279 h -1.28009 v 1.05443 h 1.50164 v 0.279 z"
           style="stroke-width:0.91444945"
           id="path114" />
        <path
           d="m 250.25413,108.66435 q -0.0369,0.20514 -0.12719,0.36926 -0.0862,0.16001 -0.22155,0.27078 -0.1313,0.11078 -0.29951,0.17232 -0.16822,0.0574 -0.36516,0.0574 -0.21745,0 -0.41028,-0.078 -0.18873,-0.078 -0.33644,-0.22566 -0.10257,-0.10257 -0.16001,-0.21335 -0.0533,-0.11077 -0.0821,-0.24617 -0.0246,-0.13949 -0.0287,-0.31181 -0.004,-0.17643 -0.004,-0.41029 0,-0.23386 0.004,-0.40618 0.004,-0.17643 0.0287,-0.31182 0.0287,-0.1395 0.0821,-0.25027 0.0574,-0.11078 0.16001,-0.21335 0.14771,-0.14771 0.33644,-0.22566 0.19283,-0.078 0.41028,-0.078 0.19694,0 0.36516,0.0615 0.16821,0.0574 0.29951,0.16822 0.13539,0.11077 0.22155,0.27489 0.0903,0.16001 0.12719,0.36515 h -0.32002 q -0.0574,-0.27079 -0.23797,-0.4308 -0.18053,-0.16001 -0.45542,-0.16001 -0.1436,0 -0.27899,0.0533 -0.13129,0.0533 -0.22566,0.1518 -0.0697,0.0697 -0.11078,0.15181 -0.041,0.078 -0.0615,0.19283 -0.0205,0.11078 -0.0287,0.27079 -0.004,0.15591 -0.004,0.38567 0,0.22976 0.004,0.38977 0.008,0.15591 0.0287,0.27079 0.0205,0.11078 0.0615,0.19283 0.041,0.078 0.11078,0.14771 0.0944,0.0985 0.22566,0.1518 0.13539,0.0533 0.27899,0.0533 0.27489,0 0.45952,-0.16001 0.18463,-0.16001 0.24207,-0.4308 z"
           style="stroke-width:0.91444945"
           id="path116" />
        <path
           d="m 250.95867,109.50954 v -2.92124 h 0.31181 v 1.39087 l 1.25137,-1.39087 h 0.39388 l -1.28009,1.38677 1.39087,1.53447 h -0.41439 l -1.34164,-1.52216 v 1.52216 z"
           style="stroke-width:0.91444945"
           id="path118" />
        <path
           d="m 255.29474,108.04892 q 0,0.21745 -0.008,0.39387 -0.004,0.17232 -0.0328,0.31592 -0.0246,0.1395 -0.0821,0.25848 -0.0533,0.11488 -0.15181,0.21335 -0.1477,0.14771 -0.33643,0.22566 -0.18873,0.078 -0.41029,0.078 -0.44311,0 -0.74672,-0.30361 -0.0985,-0.0985 -0.15591,-0.21335 -0.0533,-0.11898 -0.082,-0.25848 -0.0246,-0.1436 -0.0328,-0.31592 -0.004,-0.17642 -0.004,-0.39387 v -0.22566 q 0,-0.13129 0.008,-0.25848 0.008,-0.13129 0.0328,-0.25437 0.0287,-0.12309 0.0821,-0.23387 0.0574,-0.11488 0.1518,-0.20924 0.14771,-0.14771 0.33644,-0.22566 0.19283,-0.078 0.41028,-0.078 0.21745,0 0.40619,0.078 0.19283,0.078 0.34053,0.22566 0.0944,0.0944 0.14771,0.20924 0.0574,0.11488 0.082,0.24207 0.0287,0.12719 0.0369,0.26258 0.008,0.1313 0.008,0.26669 z m -0.31181,-0.15591 q 0,-0.12719 -0.004,-0.24617 -0.004,-0.12309 -0.0246,-0.22976 -0.0205,-0.11078 -0.0615,-0.20104 -0.041,-0.0903 -0.11488,-0.16411 -0.10257,-0.10258 -0.23386,-0.15591 -0.12719,-0.0533 -0.27079,-0.0533 -0.1436,0 -0.27489,0.0533 -0.12719,0.0533 -0.22976,0.15591 -0.078,0.078 -0.11898,0.17232 -0.041,0.0944 -0.0615,0.20924 -0.0164,0.11488 -0.0205,0.24617 -0.004,0.13129 -0.004,0.2831 v 0.2913 q 0,0.11899 0.004,0.22976 0.008,0.11078 0.0287,0.21335 0.0205,0.10257 0.0615,0.19284 0.041,0.0862 0.11078,0.1559 0.20925,0.20925 0.50465,0.20925 0.29541,0 0.50465,-0.20925 0.0739,-0.0739 0.11488,-0.16821 0.0451,-0.0985 0.0615,-0.20515 0.0205,-0.11077 0.0246,-0.22976 0.004,-0.12308 0.004,-0.25027 z"
           style="stroke-width:0.91444945"
           id="path120" />
        <path
           d="m 256.37129,106.8673 v 2.64224 h -0.31181 v -2.92124 h 1.75602 v 0.279 z"
           style="stroke-width:0.91444945"
           id="path122" />
        <path
           d="m 260.17891,108.04892 q 0,0.21745 -0.008,0.39387 -0.004,0.17232 -0.0328,0.31592 -0.0246,0.1395 -0.0821,0.25848 -0.0533,0.11488 -0.1518,0.21335 -0.14771,0.14771 -0.33644,0.22566 -0.18873,0.078 -0.41028,0.078 -0.44311,0 -0.74672,-0.30361 -0.0985,-0.0985 -0.15591,-0.21335 -0.0533,-0.11898 -0.0821,-0.25848 -0.0246,-0.1436 -0.0328,-0.31592 -0.004,-0.17642 -0.004,-0.39387 v -0.22566 q 0,-0.13129 0.008,-0.25848 0.008,-0.13129 0.0328,-0.25437 0.0287,-0.12309 0.0821,-0.23387 0.0574,-0.11488 0.15181,-0.20924 0.1477,-0.14771 0.33643,-0.22566 0.19283,-0.078 0.41029,-0.078 0.21745,0 0.40618,0.078 0.19283,0.078 0.34054,0.22566 0.0944,0.0944 0.1477,0.20924 0.0574,0.11488 0.0821,0.24207 0.0287,0.12719 0.0369,0.26258 0.008,0.1313 0.008,0.26669 z m -0.31182,-0.15591 q 0,-0.12719 -0.004,-0.24617 -0.004,-0.12309 -0.0246,-0.22976 -0.0205,-0.11078 -0.0615,-0.20104 -0.041,-0.0903 -0.11488,-0.16411 -0.10257,-0.10258 -0.23387,-0.15591 -0.12718,-0.0533 -0.27078,-0.0533 -0.1436,0 -0.2749,0.0533 -0.12718,0.0533 -0.22976,0.15591 -0.078,0.078 -0.11898,0.17232 -0.041,0.0944 -0.0615,0.20924 -0.0164,0.11488 -0.0205,0.24617 -0.004,0.13129 -0.004,0.2831 v 0.2913 q 0,0.11899 0.004,0.22976 0.008,0.11078 0.0287,0.21335 0.0205,0.10257 0.0616,0.19284 0.041,0.0862 0.11077,0.1559 0.20925,0.20925 0.50466,0.20925 0.2954,0 0.50465,-0.20925 0.0738,-0.0739 0.11488,-0.16821 0.0451,-0.0985 0.0615,-0.20515 0.0205,-0.11077 0.0246,-0.22976 0.004,-0.12308 0.004,-0.25027 z"
           style="stroke-width:0.91444945"
           id="path124" />
        <path
           d="m 263.92651,107.4458 q 0,0.19283 -0.0657,0.35285 -0.0656,0.16001 -0.18462,0.27489 -0.11488,0.11077 -0.2831,0.17232 -0.16822,0.0615 -0.36926,0.0615 h -0.77544 v 1.20214 h -0.31182 v -2.92124 h 1.08726 q 0.20104,0 0.36926,0.0615 0.16822,0.0615 0.2831,0.17642 0.11898,0.11078 0.18462,0.27079 0.0657,0.15591 0.0657,0.34874 z m -0.31182,0 q 0,-0.27489 -0.16411,-0.4267 -0.16001,-0.1518 -0.45542,-0.1518 h -0.74672 v 1.16111 h 0.74672 q 0.29541,0 0.45542,-0.15181 0.16411,-0.15591 0.16411,-0.4308 z"
           style="stroke-width:0.91444945"
           id="path126" />
        <path
           d="m 266.01929,109.50954 -0.23386,-0.66056 h -1.27599 l -0.23386,0.66056 h -0.33233 l 1.07494,-2.92124 h 0.26259 l 1.07084,2.92124 z m -0.8657,-2.47403 -0.54978,1.54268 h 1.09136 z"
           style="stroke-width:0.91444945"
           id="path128" />
        <path
           d="m 267.64536,109.53415 q -0.18873,0 -0.35694,-0.0574 -0.16412,-0.0615 -0.29541,-0.17232 -0.12719,-0.11077 -0.21745,-0.27078 -0.0862,-0.16412 -0.12309,-0.36926 h 0.30772 q 0.0574,0.27079 0.24207,0.4349 0.18462,0.16001 0.45952,0.16001 0.13949,0 0.25437,-0.0369 0.11899,-0.041 0.20515,-0.11078 0.0862,-0.0738 0.13539,-0.17642 0.0492,-0.10668 0.0492,-0.23797 0,-0.27489 -0.1559,-0.41028 -0.15181,-0.1354 -0.43901,-0.1354 h -0.36926 v -0.27079 h 0.38157 q 0.25848,0 0.39798,-0.13539 0.13949,-0.1354 0.13949,-0.39388 0,-0.25027 -0.16411,-0.38156 -0.16001,-0.1354 -0.4308,-0.1354 -0.27489,0 -0.45542,0.16412 -0.18052,0.16411 -0.24207,0.4349 h -0.31181 q 0.0369,-0.20514 0.12308,-0.36515 0.0903,-0.16412 0.22156,-0.27489 0.13129,-0.11078 0.2995,-0.16822 0.17232,-0.0615 0.36926,-0.0615 0.19694,0 0.36105,0.0533 0.16412,0.0533 0.2831,0.15591 0.12309,0.10257 0.18873,0.24617 0.0697,0.1436 0.0697,0.32003 0,0.47182 -0.42259,0.66466 0.22976,0.0821 0.34874,0.25848 0.11898,0.17232 0.11898,0.44311 0,0.19283 -0.0739,0.34464 -0.0738,0.1518 -0.20514,0.26258 -0.13129,0.10667 -0.30772,0.16411 -0.17642,0.0574 -0.38567,0.0574 z"
           style="stroke-width:0.91444945"
           id="path130" />
        <path
           d="m 271.35531,108.70948 q 0,0.37336 -0.22976,0.58671 -0.22976,0.21335 -0.64005,0.21335 h -1.13649 v -2.92124 h 1.09956 q 0.19284,0 0.35285,0.0574 0.16001,0.0533 0.27079,0.15591 0.11488,0.0985 0.17642,0.24207 0.0615,0.1395 0.0615,0.31182 0,0.31592 -0.21334,0.51696 -0.0451,0.0451 -0.0903,0.0738 -0.0451,0.0246 -0.12719,0.0615 0.10258,0.0451 0.15181,0.078 0.0533,0.0287 0.10667,0.0821 0.21746,0.20925 0.21746,0.54158 z m -0.35695,-1.33753 q 0,-0.23797 -0.15181,-0.36926 -0.1518,-0.13539 -0.42259,-0.13539 h -0.76313 v 1.0134 h 0.76313 q 0.27079,0 0.42259,-0.13129 0.15181,-0.13539 0.15181,-0.37746 z m 0.0451,1.32112 q 0,-0.24617 -0.16001,-0.38977 -0.15591,-0.1436 -0.4267,-0.1436 h -0.79595 v 1.07084 h 0.79595 q 0.27079,0 0.4267,-0.1436 0.16001,-0.1477 0.16001,-0.39387 z"
           style="stroke-width:0.91444945"
           id="path132" />
        <path
           d="m 273.87023,109.50954 v -2.38376 l -1.48523,2.38376 h -0.29541 v -2.92124 h 0.31182 v 2.37966 l 1.48523,-2.37966 h 0.29541 v 2.92124 z"
           style="stroke-width:0.91444945"
           id="path134" />
        <path
           d="m 275.888,106.8673 v 2.64224 h -0.31182 V 106.8673 H 274.731 v -0.279 h 2.00219 v 0.279 z"
           style="stroke-width:0.91444945"
           id="path136" />
        <path
           d="m 279.06291,109.50954 v -2.38376 l -1.48524,2.38376 h -0.2954 v -2.92124 h 0.31181 v 2.37966 l 1.48524,-2.37966 h 0.2954 v 2.92124 z"
           style="stroke-width:0.91444945"
           id="path138" />
        <path
           d="m 280.3955,109.50954 h -0.36515 l 0.67287,-1.24727 q -0.2913,-0.0697 -0.45952,-0.2831 -0.16822,-0.21745 -0.16822,-0.53337 0,-0.19694 0.0656,-0.35285 0.0656,-0.16001 0.18052,-0.27078 0.11899,-0.11078 0.2831,-0.17232 0.16822,-0.0615 0.37336,-0.0615 h 1.08726 v 2.92124 h -0.31182 v -1.20214 h -0.7221 z m 1.35805,-2.64635 h -0.74672 q -0.29541,0 -0.45952,0.15591 -0.16001,0.15181 -0.16001,0.4267 0,0.27489 0.16001,0.4308 0.16411,0.15181 0.45952,0.15181 h 0.74672 z"
           style="stroke-width:0.91444945"
           id="path140" />
      </g>
      <g
         aria-label="МЕЖОТРАСЛЕВОЕ АГЕНТСТВО"
         transform="scale(0.98224629,1.0180746)"
         style="font-style:normal;font-variant:normal;font-weight:normal;font-stretch:normal;font-size:6.60229588px;font-family:DINCyr-Regular;-inkscape-font-specification:'DINCyr-Regular, Normal';font-variant-ligatures:normal;font-variant-caps:normal;font-variant-numeric:normal;font-feature-settings:normal;text-align:start;writing-mode:lr-tb;text-anchor:start;fill:#28aae1;fill-opacity:1;fill-rule:nonzero;stroke:none;stroke-width:0.92644012"
         id="text3316-6">
        <path
           d="m 189.37886,105.92764 v -3.57184 l -1.28744,2.83239 h -0.42915 l -1.30726,-2.83239 v 3.57184 h -0.50177 v -4.70083 h 0.50177 l 1.53174,3.33416 1.49211,-3.33416 h 0.50178 v 4.70083 z"
           style="stroke-width:0.92644012"
           id="path143" />
        <path
           d="m 191.24339,105.92764 v -4.70083 h 2.91822 v 0.44895 h -2.41644 v 1.65718 h 2.05992 v 0.44896 h -2.05992 v 1.69679 h 2.41644 v 0.44895 z"
           style="stroke-width:0.92644012"
           id="path145" />
        <path
           d="m 194.51555,105.92764 2.15235,-2.46926 -1.98069,-2.23157 h 0.63382 l 1.92127,2.23818 v -2.23818 h 0.50178 v 2.23818 l 1.91466,-2.23818 h 0.63382 l -1.97408,2.23157 2.15235,2.46926 h -0.66023 l -2.06652,-2.44945 v 2.44945 h -0.50178 v -2.44945 l -2.06652,2.44945 z"
           style="stroke-width:0.92644012"
           id="path147" />
        <path
           d="m 204.12757,103.57723 q 0,0.34992 -0.0132,0.63382 -0.007,0.27729 -0.0528,0.50837 -0.0396,0.22448 -0.13205,0.41595 -0.0858,0.18486 -0.24429,0.34332 -0.23768,0.23768 -0.54138,0.36312 -0.30371,0.12545 -0.66023,0.12545 -0.71305,0 -1.20162,-0.48857 -0.15846,-0.15846 -0.25089,-0.34332 -0.0858,-0.19147 -0.13204,-0.41595 -0.0396,-0.23108 -0.0528,-0.50837 -0.007,-0.2839 -0.007,-0.63382 v -0.36313 q 0,-0.21127 0.0132,-0.41595 0.0132,-0.21127 0.0528,-0.40934 0.0462,-0.19807 0.13204,-0.37633 0.0924,-0.18486 0.24429,-0.33672 0.23768,-0.23768 0.54139,-0.36312 0.31031,-0.12545 0.66023,-0.12545 0.34992,0 0.65362,0.12545 0.31031,0.12544 0.54799,0.36312 0.15186,0.15186 0.23769,0.33672 0.0924,0.18487 0.13204,0.38954 0.0462,0.20467 0.0594,0.42254 0.0132,0.21128 0.0132,0.42915 z m -0.50178,-0.25089 q 0,-0.20467 -0.007,-0.39614 -0.007,-0.19807 -0.0396,-0.36973 -0.033,-0.17826 -0.099,-0.32351 -0.066,-0.14525 -0.18486,-0.26409 -0.16506,-0.16506 -0.37633,-0.25089 -0.20467,-0.0858 -0.43575,-0.0858 -0.23108,0 -0.44236,0.0858 -0.20467,0.0858 -0.36973,0.25089 -0.12544,0.12544 -0.19146,0.27729 -0.066,0.15186 -0.099,0.33672 -0.0264,0.18487 -0.033,0.39614 -0.007,0.21127 -0.007,0.45556 v 0.46876 q 0,0.19147 0.007,0.36973 0.0132,0.17826 0.0462,0.34332 0.033,0.16506 0.099,0.31031 0.066,0.13864 0.17826,0.25088 0.33672,0.33672 0.81209,0.33672 0.47536,0 0.81208,-0.33672 0.11884,-0.11884 0.18486,-0.27069 0.0726,-0.15846 0.099,-0.33012 0.033,-0.17826 0.0396,-0.36972 0.007,-0.19807 0.007,-0.40274 z"
           style="stroke-width:0.92644012"
           id="path149" />
        <path
           d="m 206.56289,101.67576 v 4.25188 h -0.50178 v -4.25188 h -1.36007 v -0.44895 h 3.22192 v 0.44895 z"
           style="stroke-width:0.92644012"
           id="path151" />
        <path
           d="m 212.00865,102.60669 q 0,0.31031 -0.10564,0.5678 -0.10564,0.25748 -0.2971,0.44235 -0.18487,0.17826 -0.45556,0.2773 -0.2707,0.099 -0.59421,0.099 h -1.24783 v 1.93447 h -0.50178 v -4.70083 h 1.74961 q 0.32351,0 0.59421,0.099 0.27069,0.099 0.45556,0.2839 0.19146,0.17826 0.2971,0.43575 0.10564,0.25089 0.10564,0.5612 z m -0.50178,0 q 0,-0.44236 -0.26409,-0.68664 -0.25749,-0.24429 -0.73285,-0.24429 h -1.20162 v 1.86845 h 1.20162 q 0.47536,0 0.73285,-0.24428 0.26409,-0.25089 0.26409,-0.69324 z"
           style="stroke-width:0.92644012"
           id="path153" />
        <path
           d="M 215.37633,105.92764 215,104.86467 h -2.05331 l -0.37633,1.06297 h -0.53479 l 1.7298,-4.70083 h 0.42255 l 1.7232,4.70083 z m -1.39308,-3.98118 -0.88471,2.48246 h 1.75621 z"
           style="stroke-width:0.92644012"
           id="path155" />
        <path
           d="m 219.711,104.56757 q -0.0594,0.33011 -0.20467,0.59421 -0.13865,0.25749 -0.35653,0.43575 -0.21127,0.17826 -0.48197,0.27729 -0.27069,0.0924 -0.5876,0.0924 -0.34992,0 -0.66023,-0.12545 -0.3037,-0.12544 -0.54139,-0.36312 -0.16505,-0.16506 -0.25749,-0.34332 -0.0858,-0.17826 -0.13204,-0.39614 -0.0396,-0.22448 -0.0462,-0.50177 -0.007,-0.2839 -0.007,-0.66023 0,-0.37634 0.007,-0.65363 0.007,-0.2839 0.0462,-0.50178 0.0462,-0.22447 0.13204,-0.40274 0.0924,-0.17826 0.25749,-0.34332 0.23769,-0.23768 0.54139,-0.36312 0.31031,-0.12545 0.66023,-0.12545 0.31691,0 0.5876,0.099 0.2707,0.0924 0.48197,0.27069 0.21788,0.17826 0.35653,0.44236 0.14525,0.25749 0.20467,0.5876 h -0.51498 q -0.0924,-0.43575 -0.38293,-0.69324 -0.29051,-0.25749 -0.73286,-0.25749 -0.23108,0 -0.44896,0.0858 -0.21127,0.0858 -0.36312,0.24429 -0.11224,0.11223 -0.17826,0.24428 -0.066,0.12544 -0.099,0.31031 -0.033,0.17826 -0.0462,0.43575 -0.007,0.25089 -0.007,0.62062 0,0.36972 0.007,0.62721 0.0132,0.25089 0.0462,0.43576 0.033,0.17826 0.099,0.3103 0.066,0.12545 0.17826,0.23769 0.15185,0.15845 0.36312,0.24428 0.21788,0.0858 0.44896,0.0858 0.44235,0 0.73946,-0.25749 0.2971,-0.25749 0.38953,-0.69324 z"
           style="stroke-width:0.92644012"
           id="path157" />
        <path
           d="m 223.43268,105.92764 v -4.25188 h -1.59776 v 1.61096 q 0,0.74606 -0.0924,1.25444 -0.0858,0.50178 -0.25749,0.81208 -0.17166,0.30371 -0.42915,0.44236 -0.25749,0.13204 -0.5942,0.13204 h -0.23769 v -0.44895 h 0.12545 q 0.21787,0 0.39614,-0.0924 0.18486,-0.0924 0.31691,-0.34331 0.13864,-0.25749 0.21127,-0.71305 0.0726,-0.46216 0.0726,-1.19502 v -1.90806 h 2.5881 v 4.70083 z"
           style="stroke-width:0.92644012"
           id="path159" />
        <path
           d="m 225.29938,105.92764 v -4.70083 h 2.91821 v 0.44895 h -2.41644 v 1.65718 h 2.05992 v 0.44896 h -2.05992 v 1.69679 h 2.41644 v 0.44895 z"
           style="stroke-width:0.92644012"
           id="path161" />
        <path
           d="m 232.4867,104.6402 q 0,0.6008 -0.36973,0.94412 -0.36973,0.34332 -1.02996,0.34332 h -1.82883 v -4.70083 h 1.76941 q 0.31031,0 0.5678,0.0924 0.25749,0.0858 0.43575,0.25089 0.18487,0.15845 0.2839,0.38953 0.099,0.22448 0.099,0.50178 0,0.50837 -0.34332,0.83189 -0.0726,0.0726 -0.14525,0.11884 -0.0726,0.0396 -0.20467,0.099 0.16506,0.0726 0.24429,0.12545 0.0858,0.0462 0.17166,0.13204 0.34992,0.33672 0.34992,0.87151 z m -0.5744,-2.15235 q 0,-0.38294 -0.24429,-0.59421 -0.24428,-0.21788 -0.68003,-0.21788 h -1.22803 v 1.63077 h 1.22803 q 0.43575,0 0.68003,-0.21127 0.24429,-0.21788 0.24429,-0.60741 z m 0.0726,2.12594 q 0,-0.39614 -0.25748,-0.62722 -0.25089,-0.23108 -0.68664,-0.23108 h -1.28085 v 1.7232 h 1.28085 q 0.43575,0 0.68664,-0.23108 0.25748,-0.23769 0.25748,-0.63382 z"
           style="stroke-width:0.92644012"
           id="path163" />
        <path
           d="m 236.77798,103.57723 q 0,0.34992 -0.0132,0.63382 -0.007,0.27729 -0.0528,0.50837 -0.0396,0.22448 -0.13205,0.41595 -0.0858,0.18486 -0.24428,0.34332 -0.23768,0.23768 -0.54139,0.36312 -0.3037,0.12545 -0.66023,0.12545 -0.71305,0 -1.20162,-0.48857 -0.15845,-0.15846 -0.25088,-0.34332 -0.0858,-0.19147 -0.13205,-0.41595 -0.0396,-0.23108 -0.0528,-0.50837 -0.007,-0.2839 -0.007,-0.63382 v -0.36313 q 0,-0.21127 0.0132,-0.41595 0.0132,-0.21127 0.0528,-0.40934 0.0462,-0.19807 0.13205,-0.37633 0.0924,-0.18486 0.24428,-0.33672 0.23769,-0.23768 0.54139,-0.36312 0.31031,-0.12545 0.66023,-0.12545 0.34992,0 0.65363,0.12545 0.31031,0.12544 0.54799,0.36312 0.15185,0.15186 0.23768,0.33672 0.0924,0.18487 0.13205,0.38954 0.0462,0.20467 0.0594,0.42254 0.0132,0.21128 0.0132,0.42915 z m -0.50177,-0.25089 q 0,-0.20467 -0.007,-0.39614 -0.007,-0.19807 -0.0396,-0.36973 -0.033,-0.17826 -0.099,-0.32351 -0.066,-0.14525 -0.18487,-0.26409 -0.16505,-0.16506 -0.37633,-0.25089 -0.20467,-0.0858 -0.43575,-0.0858 -0.23108,0 -0.44235,0.0858 -0.20467,0.0858 -0.36973,0.25089 -0.12544,0.12544 -0.19147,0.27729 -0.066,0.15186 -0.099,0.33672 -0.0264,0.18487 -0.033,0.39614 -0.007,0.21127 -0.007,0.45556 v 0.46876 q 0,0.19147 0.007,0.36973 0.0132,0.17826 0.0462,0.34332 0.033,0.16506 0.099,0.31031 0.066,0.13864 0.17826,0.25088 0.33672,0.33672 0.81208,0.33672 0.47537,0 0.81208,-0.33672 0.11885,-0.11884 0.18487,-0.27069 0.0726,-0.15846 0.099,-0.33012 0.033,-0.17826 0.0396,-0.36972 0.007,-0.19807 0.007,-0.40274 z"
           style="stroke-width:0.92644012"
           id="path165" />
        <path
           d="m 237.96237,105.92764 v -4.70083 h 2.91822 v 0.44895 h -2.41644 v 1.65718 h 2.05991 v 0.44896 h -2.05991 v 1.69679 h 2.41644 v 0.44895 z"
           style="stroke-width:0.92644012"
           id="path167" />
        <path
           d="m 246.2988,105.92764 -0.37633,-1.06297 h -2.05331 l -0.37633,1.06297 h -0.53479 l 1.7298,-4.70083 h 0.42255 l 1.7232,4.70083 z m -1.39308,-3.98118 -0.88471,2.48246 h 1.75621 z"
           style="stroke-width:0.92644012"
           id="path169" />
        <path
           d="m 248.14301,101.67576 v 4.25188 h -0.50177 v -4.70083 h 2.82578 v 0.44895 z"
           style="stroke-width:0.92644012"
           id="path171" />
        <path
           d="m 251.34749,105.92764 v -4.70083 h 2.91822 v 0.44895 h -2.41644 v 1.65718 h 2.05991 v 0.44896 h -2.05991 v 1.69679 h 2.41644 v 0.44895 z"
           style="stroke-width:0.92644012"
           id="path173" />
        <path
           d="m 258.03965,105.92764 v -2.14574 h -2.23158 v 2.14574 h -0.50177 v -4.70083 h 0.50177 v 2.10613 h 2.23158 v -2.10613 h 0.50177 v 4.70083 z"
           style="stroke-width:0.92644012"
           id="path175" />
        <path
           d="m 261.27684,101.67576 v 4.25188 h -0.50178 v -4.25188 h -1.36007 v -0.44895 h 3.22192 v 0.44895 z"
           style="stroke-width:0.92644012"
           id="path177" />
        <path
           d="m 266.48801,104.56757 q -0.0594,0.33011 -0.20467,0.59421 -0.13865,0.25749 -0.35653,0.43575 -0.21127,0.17826 -0.48197,0.27729 -0.27069,0.0924 -0.5876,0.0924 -0.34992,0 -0.66023,-0.12545 -0.3037,-0.12544 -0.54139,-0.36312 -0.16505,-0.16506 -0.25749,-0.34332 -0.0858,-0.17826 -0.13204,-0.39614 -0.0396,-0.22448 -0.0462,-0.50177 -0.007,-0.2839 -0.007,-0.66023 0,-0.37634 0.007,-0.65363 0.007,-0.2839 0.0462,-0.50178 0.0462,-0.22447 0.13204,-0.40274 0.0924,-0.17826 0.25749,-0.34332 0.23769,-0.23768 0.54139,-0.36312 0.31031,-0.12545 0.66023,-0.12545 0.31691,0 0.5876,0.099 0.2707,0.0924 0.48197,0.27069 0.21788,0.17826 0.35653,0.44236 0.14525,0.25749 0.20467,0.5876 h -0.51498 q -0.0924,-0.43575 -0.38293,-0.69324 -0.29051,-0.25749 -0.73286,-0.25749 -0.23108,0 -0.44896,0.0858 -0.21127,0.0858 -0.36312,0.24429 -0.11224,0.11223 -0.17826,0.24428 -0.066,0.12544 -0.099,0.31031 -0.033,0.17826 -0.0462,0.43575 -0.007,0.25089 -0.007,0.62062 0,0.36972 0.007,0.62721 0.0132,0.25089 0.0462,0.43576 0.033,0.17826 0.099,0.3103 0.066,0.12545 0.17826,0.23769 0.15185,0.15845 0.36312,0.24428 0.21788,0.0858 0.44896,0.0858 0.44235,0 0.73946,-0.25749 0.2971,-0.25749 0.38953,-0.69324 z"
           style="stroke-width:0.92644012"
           id="path179" />
        <path
           d="m 268.91719,101.67576 v 4.25188 h -0.50178 v -4.25188 h -1.36007 v -0.44895 h 3.22192 v 0.44895 z"
           style="stroke-width:0.92644012"
           id="path181" />
        <path
           d="m 274.3958,104.6402 q 0,0.6008 -0.36973,0.94412 -0.36972,0.34332 -1.02995,0.34332 h -1.82884 v -4.70083 h 1.76942 q 0.3103,0 0.56779,0.0924 0.25749,0.0858 0.43575,0.25089 0.18487,0.15845 0.2839,0.38953 0.099,0.22448 0.099,0.50178 0,0.50837 -0.34332,0.83189 -0.0726,0.0726 -0.14525,0.11884 -0.0726,0.0396 -0.20467,0.099 0.16505,0.0726 0.24428,0.12545 0.0858,0.0462 0.17166,0.13204 0.34992,0.33672 0.34992,0.87151 z m -0.5744,-2.15235 q 0,-0.38294 -0.24428,-0.59421 -0.24429,-0.21788 -0.68004,-0.21788 h -1.22803 v 1.63077 h 1.22803 q 0.43575,0 0.68004,-0.21127 0.24428,-0.21788 0.24428,-0.60741 z m 0.0726,2.12594 q 0,-0.39614 -0.25749,-0.62722 -0.25089,-0.23108 -0.68664,-0.23108 h -1.28085 v 1.7232 h 1.28085 q 0.43575,0 0.68664,-0.23108 0.25749,-0.23769 0.25749,-0.63382 z"
           style="stroke-width:0.92644012"
           id="path183" />
        <path
           d="m 278.68709,103.57723 q 0,0.34992 -0.0132,0.63382 -0.007,0.27729 -0.0528,0.50837 -0.0396,0.22448 -0.13204,0.41595 -0.0858,0.18486 -0.24429,0.34332 -0.23768,0.23768 -0.54138,0.36312 -0.30371,0.12545 -0.66023,0.12545 -0.71305,0 -1.20162,-0.48857 -0.15846,-0.15846 -0.25089,-0.34332 -0.0858,-0.19147 -0.13205,-0.41595 -0.0396,-0.23108 -0.0528,-0.50837 -0.007,-0.2839 -0.007,-0.63382 v -0.36313 q 0,-0.21127 0.0132,-0.41595 0.0132,-0.21127 0.0528,-0.40934 0.0462,-0.19807 0.13204,-0.37633 0.0924,-0.18486 0.24429,-0.33672 0.23768,-0.23768 0.54139,-0.36312 0.3103,-0.12545 0.66023,-0.12545 0.34992,0 0.65362,0.12545 0.31031,0.12544 0.54799,0.36312 0.15186,0.15186 0.23769,0.33672 0.0924,0.18487 0.13204,0.38954 0.0462,0.20467 0.0594,0.42254 0.0132,0.21128 0.0132,0.42915 z m -0.50178,-0.25089 q 0,-0.20467 -0.007,-0.39614 -0.007,-0.19807 -0.0396,-0.36973 -0.033,-0.17826 -0.099,-0.32351 -0.066,-0.14525 -0.18486,-0.26409 -0.16506,-0.16506 -0.37633,-0.25089 -0.20467,-0.0858 -0.43575,-0.0858 -0.23108,0 -0.44236,0.0858 -0.20467,0.0858 -0.36973,0.25089 -0.12544,0.12544 -0.19146,0.27729 -0.066,0.15186 -0.099,0.33672 -0.0264,0.18487 -0.033,0.39614 -0.007,0.21127 -0.007,0.45556 v 0.46876 q 0,0.19147 0.007,0.36973 0.0132,0.17826 0.0462,0.34332 0.033,0.16506 0.099,0.31031 0.066,0.13864 0.17826,0.25088 0.33672,0.33672 0.81209,0.33672 0.47536,0 0.81208,-0.33672 0.11884,-0.11884 0.18486,-0.27069 0.0726,-0.15846 0.099,-0.33012 0.033,-0.17826 0.0396,-0.36972 0.007,-0.19807 0.007,-0.40274 z"
           style="stroke-width:0.92644012"
           id="path185" />
      </g>
    </g>
    <g
       id="g6315"
       transform="matrix(0,-0.10606869,-0.35277777,0,543.15648,218.50446)"
       style="opacity:1;fill:#28aae1;fill-opacity:1">
      <g
         clip-path="url(#clipPath3446)"
         id="g6313"
         style="fill:#28aae1;fill-opacity:1">
        <path
           inkscape:connector-curvature="0"
           id="path6311"
           style="fill:#28aae1;fill-opacity:1;fill-rule:nonzero;stroke:none"
           d="M 1011.261,1027.692 H 915.36 v 0.5 h 95.901 z" />
      </g>
    </g>
  </g>
</svg>
