<?xml version="1.0" encoding="UTF-8" standalone="no"?>
<!-- Created with Inkscape (http://www.inkscape.org/) -->

<svg
   xmlns:dc="http://purl.org/dc/elements/1.1/"
   xmlns:cc="http://creativecommons.org/ns#"
   xmlns:rdf="http://www.w3.org/1999/02/22-rdf-syntax-ns#"
   xmlns:svg="http://www.w3.org/2000/svg"
   xmlns="http://www.w3.org/2000/svg"
   xmlns:sodipodi="http://sodipodi.sourceforge.net/DTD/sodipodi-0.dtd"
   xmlns:inkscape="http://www.inkscape.org/namespaces/inkscape"
   width="67.867218mm"
   height="16.23053mm"
   viewBox="0 0 67.867218 16.23053"
   version="1.1"
   id="svg6353"
   inkscape:version="0.92.1 r"
   sodipodi:docname="logo_marer_horizontal.svg"
   inkscape:export-filename="/home/numega/Загрузки/marer_vc/full_logo.svg.png"
   inkscape:export-xdpi="300.20001"
   inkscape:export-ydpi="300.20001">
  <defs
     id="defs6347">
    <clipPath
       clipPathUnits="userSpaceOnUse"
       id="clipPath3446">
      <path
         d="M 0,1232 H 1397.011 V 0 H 0 Z"
         id="path3444"
         inkscape:connector-curvature="0" />
    </clipPath>
  </defs>
  <sodipodi:namedview
     id="base"
     pagecolor="#ffffff"
     bordercolor="#666666"
     borderopacity="1.0"
     inkscape:pageopacity="0.0"
     inkscape:pageshadow="2"
     inkscape:zoom="0.98994949"
     inkscape:cx="212.54736"
     inkscape:cy="99.69752"
     inkscape:document-units="mm"
     inkscape:current-layer="layer1"
     showgrid="false"
     fit-margin-top="0"
     fit-margin-left="0"
     fit-margin-right="0"
     fit-margin-bottom="0"
     inkscape:window-width="1364"
     inkscape:window-height="743"
     inkscape:window-x="0"
     inkscape:window-y="23"
     inkscape:window-maximized="1" />
  <metadata
     id="metadata6350">
    <rdf:RDF>
      <cc:Work
         rdf:about="">
        <dc:format>image/svg+xml</dc:format>
        <dc:type
           rdf:resource="http://purl.org/dc/dcmitype/StillImage" />
        <dc:title />
      </cc:Work>
    </rdf:RDF>
  </metadata>
  <g
     inkscape:label="Layer 1"
     inkscape:groupmode="layer"
     id="layer1"
     transform="translate(-110.71344,-108.21211)">
    <g
       aria-label="МАРЭР"
       style="font-style:normal;font-variant:normal;font-weight:normal;font-stretch:normal;font-size:13.93375492px;font-family:'Elegant Line 7';-inkscape-font-specification:'Elegant Line 7, Normal';font-variant-ligatures:normal;font-variant-caps:normal;font-variant-numeric:normal;font-feature-settings:normal;text-align:start;writing-mode:lr-tb;text-anchor:start;opacity:1;fill:#0c2957;fill-opacity:1;fill-rule:nonzero;stroke:none;stroke-width:0.48047429"
       id="text1742">
      <path
         d="m 132.9966,121.43007 h -0.68036 v -10.20539 h 0.68036 l 3.40179,4.57882 3.4018,-4.57882 h 0.68036 v 10.20539 h -0.68036 v -9.06919 l -3.4018,4.52439 -3.40179,-4.5448 z"
         style="stroke-width:0.48047429"
         id="path50" />
      <path
         d="m 142.52163,121.43007 h -0.68036 v -6.12323 q 0,-4.08216 4.08215,-4.08216 4.08216,0 4.08216,4.08216 v 6.12323 h -0.68036 v -4.08216 h -6.80359 z m 6.80359,-4.76251 v -1.36072 q 0,-3.4018 -3.4018,-3.4018 -3.40179,0 -3.40179,3.4018 v 1.36072 z"
         style="stroke-width:0.48047429"
         id="path52" />
      <path
         d="m 151.36629,121.43007 v -10.20539 h 4.08216 q 4.08215,0 4.08215,4.08216 0,4.08215 -4.08215,4.08215 h -3.4018 v 2.04108 z m 4.08216,-2.72144 q 3.4018,0 3.4018,-3.40179 0,-3.4018 -3.4018,-3.4018 h -3.4018 v 6.80359 z"
         style="stroke-width:0.48047429"
         id="path54" />
      <path
         d="m 164.97348,115.9872 h 3.40179 v -0.68036 q 0,-3.4018 -3.40179,-3.4018 -2.72144,0 -3.19769,2.04108 h -0.68036 q 0.47625,-2.72144 3.87805,-2.72144 4.08215,0 4.08215,4.08216 v 2.04107 q 0,4.08216 -4.08215,4.08216 -3.4018,0 -3.87805,-2.72144 h 0.68036 q 0.47625,2.04108 3.19769,2.04108 3.40179,0 3.40179,-3.4018 v -0.68035 h -3.40179 z"
         style="stroke-width:0.48047429"
         id="path56" />
      <path
         d="m 170.41635,121.43007 v -10.20539 h 4.08216 q 4.08215,0 4.08215,4.08216 0,4.08215 -4.08215,4.08215 h -3.4018 v 2.04108 z m 4.08216,-2.72144 q 3.40179,0 3.40179,-3.40179 0,-3.4018 -3.40179,-3.4018 h -3.4018 v 6.80359 z"
         style="stroke-width:0.48047429"
         id="path58" />
    </g>
    <g
       id="g5464"
       transform="matrix(0.35277777,0,0,-0.35277777,-255.4043,499.95976)">
      <path
         id="path2604-7"
         d="m 1067.3532,1075.0595 -2.6758,-2.6836 -2.6836,2.6524 2.6758,2.6796 2.6836,-2.6484"
         style="fill:#17234a;fill-opacity:1;fill-rule:nonzero;stroke:none;stroke-width:0.99999994"
         inkscape:connector-curvature="0" />
      <path
         id="path2606"
         d="m 1071.4196,1078.958 -2.6797,-2.6719 -6.7578,6.7617 2.6758,2.6797 6.7617,-6.7695"
         style="fill:#17234a;fill-opacity:1;fill-rule:nonzero;stroke:none;stroke-width:0.99999994"
         inkscape:connector-curvature="0" />
      <path
         id="path2608-9"
         d="m 1075.5212,1083.0087 -2.6797,-2.6797 -10.8321,10.7969 2.6719,2.6836 10.8399,-10.8008"
         style="fill:#17234a;fill-opacity:1;fill-rule:nonzero;stroke:none;stroke-width:0.99999994"
         inkscape:connector-curvature="0" />
      <path
         id="path2610"
         d="m 1079.6227,1087.1064 -2.6797,-2.6406 -14.9609,14.9609 2.6797,2.6719 14.9609,-14.9922"
         style="fill:#17234a;fill-opacity:1;fill-rule:nonzero;stroke:none;stroke-width:0.99999994"
         inkscape:connector-curvature="0" />
      <path
         id="path2612-6"
         d="m 1083.7282,1091.3369 -2.6758,-2.668 -19.1289,19.1289 2.6758,2.668 19.1289,-19.1289"
         style="fill:#17234a;fill-opacity:1;fill-rule:nonzero;stroke:none;stroke-width:0.99999994"
         inkscape:connector-curvature="0" />
      <path
         id="path2614"
         d="m 1063.4118,1078.9658 -2.6797,-2.6797 -15.2109,15.25 2.6758,2.6797 15.2148,-15.25"
         style="fill:#78cce3;fill-opacity:1;fill-rule:nonzero;stroke:none;stroke-width:0.99999994"
         inkscape:connector-curvature="0" />
      <path
         id="path2616-0"
         d="m 1063.4274,1086.958 -2.6797,-2.6798 -11.2461,11.25 2.6797,2.668 11.2461,-11.2382"
         style="fill:#78cce3;fill-opacity:1;fill-rule:nonzero;stroke:none;stroke-width:0.99999994"
         inkscape:connector-curvature="0" />
      <path
         id="path2618"
         d="m 1063.3805,1095.1181 -2.6796,-2.6797 -7.125,7.1602 2.6796,2.6679 7.125,-7.1484"
         style="fill:#78cce3;fill-opacity:1;fill-rule:nonzero;stroke:none;stroke-width:0.99999994"
         inkscape:connector-curvature="0" />
      <path
         id="path2620-4"
         d="m 1063.4313,1103.3486 -2.6758,-2.6797 -3.0664,3.0391 2.6758,2.6679 3.0664,-3.0273"
         style="fill:#78cce3;fill-opacity:1;fill-rule:nonzero;stroke:none;stroke-width:0.99999994"
         inkscape:connector-curvature="0" />
      <path
         id="path2622"
         d="m 1091.5759,1091.4072 -26.9883,-26.9492 -26.7735,26.9804 5.2383,0.028 21.5352,-21.8282 21.7031,21.8008 5.2852,-0.031"
         style="fill:#78cce3;fill-opacity:1;fill-rule:nonzero;stroke:none;stroke-width:0.99999994"
         inkscape:connector-curvature="0" />
    </g>
  </g>
</svg>
